#!OML:ASF H:\BabyWalks\Project 1\Capture day 1\Session 1\baby.ASF
:FULLY-SPECIFIED
:DEGREES
735
root 39.4675 17.4095 1.13157 -220.52 88.5243 -219.773
lowerback 19.3325 0.356984 1.95833
upperback 6.08391 1.28552 1.07635
thorax -4.24053 0.795029 -0.268984
lowerneck 2.17676 2.09555 8.00486
upperneck -9.77331 2.24652 -13.9674
head -2.94734 1.49356 -5.68127
rclavicle 8.54774e-015 1.03368e-014
rhumerus -44.9851 6.59642 -82.1684
rradius 49.7277
rwrist -0.877354
rhand -9.59736 -16.9907
rfingers 7.12502
rthumb 16.3714 -46.3197
lclavicle 8.54774e-015 1.03368e-014
lhumerus -44.895 -7.10979 79.6671
lradius 49.9403
lwrist 1.66596
lhand -0.973542 10.5567
lfingers 7.12502
lthumb 24.6576 38.9881
rfemur -13.4195 11.5133 19.843
rtibia 32.9289
rfoot -19.0543 0.2978
rtoes 7.53558
lfemur -7.71214 -6.77787 -15.4442
ltibia 27.3348
lfoot -23.7124 -8.53784
ltoes -3.67144
736
root 39.4904 17.4037 1.14009 -218.019 88.5666 -217.08
lowerback 19.2938 0.312115 2.18675
upperback 6.06979 1.2764 1.20375
thorax -4.23379 0.790401 -0.260655
lowerneck 2.19533 2.1061 8.0963
upperneck -9.65735 2.25234 -14.3296
head -2.90758 1.50797 -5.80953
rclavicle -1.47101e-014 -2.06736e-014
rhumerus -44.9778 6.62937 -82.0998
rradius 49.629
rwrist -0.767026
rhand -9.39585 -16.9694
rfingers 7.12502
rthumb 16.5654 -46.2824
lclavicle -1.47101e-014 -2.06736e-014
lhumerus -44.9939 -6.99816 79.7519
lradius 49.9542
lwrist 1.70178
lhand -0.987421 10.5788
lfingers 7.12502
lthumb 24.6443 39.0121
rfemur -13.0621 11.594 20.0322
rtibia 32.8488
rfoot -19.0441 0.309687
rtoes 7.8791
lfemur -7.58154 -6.5521 -15.3184
ltibia 27.6449
lfoot -23.8393 -8.84763
ltoes -3.66733
737
root 39.513 17.3981 1.14858 -214.977 88.6033 -213.834
lowerback 19.2734 0.261525 2.42172
upperback 6.05601 1.26261 1.33867
thorax -4.2363 0.783637 -0.247266
lowerneck 2.21887 2.11897 8.19211
upperneck -9.52784 2.26305 -14.7054
head -2.86383 1.52498 -5.94301
rclavicle -4.57205e-015 -1.35174e-014
rhumerus -44.9558 6.65887 -82.0096
rradius 49.5262
rwrist -0.652137
rhand -9.19056 -16.944
rfingers 7.12502
rthumb 16.763 -46.2403
lclavicle -4.57205e-015 -1.35174e-014
lhumerus -45.0979 -6.89275 79.8526
lradius 49.9729
lwrist 1.74591
lhand -0.986765 10.5984
lfingers 7.12502
lthumb 24.6449 39.0316
rfemur -12.6863 11.6517 20.2314
rtibia 32.7529
rfoot -19.0226 0.332367
rtoes 8.21998
lfemur -7.48015 -6.29626 -15.1791
ltibia 28.0192
lfoot -23.9452 -9.20294
ltoes -3.69273
738
root 39.5351 17.3928 1.15729 -211.375 88.6287 -210.019
lowerback 19.2666 0.205135 2.65694
upperback 6.04622 1.24297 1.48061
thorax -4.24188 0.774326 -0.225392
lowerneck 2.24267 2.13262 8.29333
upperneck -9.38807 2.27658 -15.0916
head -2.81653 1.54331 -6.08085
rclavicle 1.39149e-015 -7.95139e-015
rhumerus -44.9117 6.6804 -81.8976
rradius 49.4182
rwrist -0.538455
rhand -8.98124 -16.9194
rfingers 7.12502
rthumb 16.9645 -46.1986
lclavicle 1.39149e-015 -7.95139e-015
lhumerus -45.1958 -6.80241 79.9697
lradius 49.9982
lwrist 1.80509
lhand -0.962349 10.6361
lfingers 7.12502
lthumb 24.6683 39.0661
rfemur -12.2951 11.6854 20.4389
rtibia 32.6432
rfoot -18.9936 0.359172
rtoes 8.54659
lfemur -7.41411 -6.00411 -15.0262
ltibia 28.4621
lfoot -24.0214 -9.61012
ltoes -3.74949
739
root 39.5567 17.3881 1.16614 -207.341 88.6371 -205.765
lowerback 19.2739 0.143572 2.89222
upperback 6.03876 1.21824 1.62731
thorax -4.25256 0.762764 -0.197464
lowerneck 2.27446 2.14403 8.40523
upperneck -9.24571 2.28865 -15.4927
head -2.7696 1.56132 -6.22567
rclavicle 1.11319e-014 1.74931e-014
rhumerus -44.8477 6.68658 -81.7607
rradius 49.3086
rwrist -0.425401
rhand -8.77315 -16.8922
rfingers 7.12502
rthumb 17.1648 -46.154
lclavicle 1.11319e-014 1.74931e-014
lhumerus -45.2891 -6.73387 80.1059
lradius 50.0254
lwrist 1.87343
lhand -0.933138 10.6699
lfingers 7.12502
lthumb 24.6963 39.0961
rfemur -11.8933 11.6893 20.6489
rtibia 32.5224
rfoot -18.9631 0.390969
rtoes 8.85579
lfemur -7.39027 -5.67003 -14.8624
ltibia 28.979
lfoot -24.0629 -10.0732
ltoes -3.84408
740
root 39.5775 17.3838 1.1751 -203.189 88.6235 -201.391
lowerback 19.2962 0.0757685 3.11934
upperback 6.03207 1.1854 1.77585
thorax -4.27066 0.747366 -0.161249
lowerneck 2.31441 2.15471 8.53177
upperneck -9.10162 2.30167 -15.9046
head -2.72306 1.57991 -6.37705
rclavicle -2.26615e-014 -3.26007e-014
rhumerus -44.7642 6.68397 -81.6062
rradius 49.1945
rwrist -0.318846
rhand -8.57587 -16.869
rfingers 7.12502
rthumb 17.3547 -46.1142
lclavicle -2.26615e-014 -3.26007e-014
lhumerus -45.3824 -6.679 80.2562
lradius 50.0601
lwrist 1.94049
lhand -0.896667 10.7053
lfingers 7.12502
lthumb 24.7312 39.1266
rfemur -11.4875 11.6622 20.8538
rtibia 32.3935
rfoot -18.9336 0.422328
rtoes 9.12015
lfemur -7.41745 -5.28674 -14.6926
ltibia 29.5751
lfoot -24.0574 -10.5967
ltoes -3.9572
